<svg width="50" height="56" viewBox="0 0 50 56" fill="none" xmlns="http://www.w3.org/2000/svg">
<g filter="url(#filter0_dd_85_209)">
<circle cx="25" cy="28" r="20" fill="url(#paint0_linear_85_209)"/>
</g>
<path d="M31.9028 26.1451C31.8695 26.0482 31.7516 25.9729 31.6531 25.9729C31.2267 25.9729 30.8003 25.9729 30.3738 25.9729C30.2754 25.9729 30.1574 26.0482 30.1241 26.1451C30.0915 26.2399 30.0672 26.3245 30.051 26.4041L29.1965 24.04C29.0556 23.6502 28.6823 23.3883 28.2678 23.3883H21.7322C21.3177 23.3883 20.9445 23.6502 20.8035 24.0401L19.9489 26.4044C19.9327 26.3247 19.9084 26.24 19.8758 26.1451C19.8425 26.0482 19.7245 25.9729 19.6261 25.9729C19.1997 25.9729 18.7733 25.9729 18.3468 25.9729C18.2484 25.9729 18.1304 26.0482 18.0971 26.1451C17.9676 26.5223 17.9677 26.7382 18.0972 27.1155C18.1304 27.2124 18.2484 27.2877 18.3469 27.2877C18.7733 27.2877 19.1997 27.2877 19.6261 27.2877C19.6273 27.2877 19.6286 27.2874 19.6299 27.2873L19.6106 27.3408C19.3497 27.4275 19.1614 27.673 19.1614 27.963V29.9427V30.1058V32.2964C19.1614 32.4706 19.3025 32.6117 19.4766 32.6117H21.0633C21.2374 32.6117 21.3786 32.4706 21.3786 32.2964V30.7617H28.6214V32.2964C28.6214 32.4706 28.7626 32.6117 28.9367 32.6117H30.5234C30.6975 32.6117 30.8386 32.4706 30.8386 32.2964V30.1058V29.9427V27.963C30.8386 27.6731 30.6504 27.4276 30.3896 27.3408L30.3703 27.2873C30.3715 27.2874 30.3727 27.2877 30.3739 27.2877C30.8003 27.2877 31.2267 27.2877 31.6531 27.2877C31.7516 27.2877 31.8696 27.2123 31.9028 27.1154C32.0324 26.7382 32.0323 26.5223 31.9028 26.1451ZM21.8529 24.5485H28.1462L29.1433 27.307H20.8559L21.8529 24.5485ZM22.0285 29.2504H20.7011C20.4163 29.2504 20.1855 29.0195 20.1855 28.7347C20.1855 28.45 20.4163 28.2191 20.7011 28.2191H22.0285C22.3132 28.2191 22.5441 28.45 22.5441 28.7347C22.5441 29.0195 22.3132 29.2504 22.0285 29.2504ZM29.2988 29.2504H27.9714C27.6867 29.2504 27.4558 29.0195 27.4558 28.7347C27.4558 28.45 27.6867 28.2191 27.9714 28.2191H29.2988C29.5836 28.2191 29.8144 28.45 29.8144 28.7347C29.8144 29.0195 29.5836 29.2504 29.2988 29.2504Z" fill="white"/>
<defs>
<filter id="filter0_dd_85_209" x="0" y="0" width="50" height="56" filterUnits="userSpaceOnUse" color-interpolation-filters="sRGB">
<feFlood flood-opacity="0" result="BackgroundImageFix"/>
<feColorMatrix in="SourceAlpha" type="matrix" values="0 0 0 0 0 0 0 0 0 0 0 0 0 0 0 0 0 0 127 0" result="hardAlpha"/>
<feOffset dy="3"/>
<feGaussianBlur stdDeviation="2.5"/>
<feColorMatrix type="matrix" values="0 0 0 0 0.18564 0 0 0 0 0.0973785 0 0 0 0 0.295833 0 0 0 0.1 0"/>
<feBlend mode="normal" in2="BackgroundImageFix" result="effect1_dropShadow_85_209"/>
<feColorMatrix in="SourceAlpha" type="matrix" values="0 0 0 0 0 0 0 0 0 0 0 0 0 0 0 0 0 0 127 0" result="hardAlpha"/>
<feOffset dy="-3"/>
<feGaussianBlur stdDeviation="2.5"/>
<feColorMatrix type="matrix" values="0 0 0 0 0.233818 0 0 0 0 0.556324 0 0 0 0 0.8625 0 0 0 0.17 0"/>
<feBlend mode="normal" in2="effect1_dropShadow_85_209" result="effect2_dropShadow_85_209"/>
<feBlend mode="normal" in="SourceGraphic" in2="effect2_dropShadow_85_209" result="shape"/>
</filter>
<linearGradient id="paint0_linear_85_209" x1="25" y1="8" x2="25" y2="48" gradientUnits="userSpaceOnUse">
<stop stop-color="#68ADFF"/>
<stop offset="1" stop-color="#4F45FF"/>
</linearGradient>
</defs>
</svg>
