<svg width="50" height="56" viewBox="0 0 50 56" fill="none" xmlns="http://www.w3.org/2000/svg">
<g filter="url(#filter0_dd_85_155)">
<circle cx="25" cy="28" r="20" fill="url(#paint0_linear_85_155)"/>
</g>
<g clip-path="url(#clip0_85_155)">
<g clip-path="url(#clip1_85_155)">
<path d="M31.6223 27.0889C31.622 27.0886 31.6217 27.0883 31.6213 27.088L25.9104 21.3773C25.667 21.1338 25.3434 20.9996 24.9991 20.9996C24.6549 20.9996 24.3312 21.1337 24.0877 21.3772L18.3798 27.085C18.3779 27.0869 18.376 27.0889 18.374 27.0909C17.8742 27.5936 17.875 28.4093 18.3765 28.9108C18.6056 29.14 18.9082 29.2728 19.2317 29.2867C19.2449 29.288 19.2581 29.2886 19.2715 29.2886H19.4991V33.4913C19.4991 34.323 20.1757 34.9996 21.0076 34.9996H23.2419C23.4683 34.9996 23.652 34.816 23.652 34.5895V31.2945C23.652 30.915 23.9607 30.6064 24.3402 30.6064H25.658C26.0376 30.6064 26.3462 30.915 26.3462 31.2945V34.5895C26.3462 34.816 26.5298 34.9996 26.7564 34.9996H28.9907C29.8225 34.9996 30.4992 34.323 30.4992 33.4913V29.2886H30.7102C31.0544 29.2886 31.378 29.1546 31.6217 28.911C32.1237 28.4087 32.1239 27.5916 31.6223 27.0889Z" fill="white"/>
</g>
</g>
<defs>
<filter id="filter0_dd_85_155" x="0" y="0" width="50" height="56" filterUnits="userSpaceOnUse" color-interpolation-filters="sRGB">
<feFlood flood-opacity="0" result="BackgroundImageFix"/>
<feColorMatrix in="SourceAlpha" type="matrix" values="0 0 0 0 0 0 0 0 0 0 0 0 0 0 0 0 0 0 127 0" result="hardAlpha"/>
<feOffset dy="3"/>
<feGaussianBlur stdDeviation="2.5"/>
<feColorMatrix type="matrix" values="0 0 0 0 0.18564 0 0 0 0 0.0973785 0 0 0 0 0.295833 0 0 0 0.1 0"/>
<feBlend mode="normal" in2="BackgroundImageFix" result="effect1_dropShadow_85_155"/>
<feColorMatrix in="SourceAlpha" type="matrix" values="0 0 0 0 0 0 0 0 0 0 0 0 0 0 0 0 0 0 127 0" result="hardAlpha"/>
<feOffset dy="-3"/>
<feGaussianBlur stdDeviation="2.5"/>
<feColorMatrix type="matrix" values="0 0 0 0 0.233818 0 0 0 0 0.556324 0 0 0 0 0.8625 0 0 0 0.17 0"/>
<feBlend mode="normal" in2="effect1_dropShadow_85_155" result="effect2_dropShadow_85_155"/>
<feBlend mode="normal" in="SourceGraphic" in2="effect2_dropShadow_85_155" result="shape"/>
</filter>
<linearGradient id="paint0_linear_85_155" x1="25" y1="8" x2="25" y2="48" gradientUnits="userSpaceOnUse">
<stop stop-color="#68ADFF"/>
<stop offset="1" stop-color="#4F45FF"/>
</linearGradient>
<clipPath id="clip0_85_155">
<rect width="14" height="14" fill="white" transform="translate(18 21)"/>
</clipPath>
<clipPath id="clip1_85_155">
<rect width="14" height="14" fill="white" transform="translate(18.0002 20.9996)"/>
</clipPath>
</defs>
</svg>
